<?xml version="1.0" encoding="UTF-8"?>
<svg width="15px" height="22px" viewBox="0 0 15 22" version="1.1" xmlns="http://www.w3.org/2000/svg" xmlns:xlink="http://www.w3.org/1999/xlink">
    <!-- Generator: Sketch 49.3 (51167) - http://www.bohemiancoding.com/sketch -->
    <title></title>
    <desc>Created with Sketch.</desc>
    <defs></defs>
    <g id="Page-1" stroke="none" stroke-width="1" fill="none" fill-rule="evenodd">
        <g id="Home-Page" transform="translate(-616.000000, -394.000000)" fill="#D6D6D6">
            <g id="Group-6" transform="translate(0.000000, 7.000000)">
                <g id="Group-25" transform="translate(600.000000, 363.000000)">
                    <g id="Group-14">
                        <g id="Group-19" transform="translate(11.000000, 23.000000)">
                            <path d="M12.5,11.7 C12.966669,11.7 13.399998,11.5833345 13.8,11.35 C14.200002,11.1166655 14.5166655,10.8041686 14.75,10.4125 C14.9833345,10.0208314 15.1,9.591669 15.1,9.125 C15.1,8.658331 14.9833345,8.225002 14.75,7.825 C14.5166655,7.424998 14.200002,7.1083345 13.8,6.875 C13.399998,6.6416655 12.966669,6.525 12.5,6.525 C12.033331,6.525 11.6041686,6.6416655 11.2125,6.875 C10.8208314,7.1083345 10.5083345,7.424998 10.275,7.825 C10.0416655,8.225002 9.925,8.658331 9.925,9.125 C9.925,9.84167025 10.1749975,10.4499975 10.675,10.95 C11.1750025,11.4500025 11.7833298,11.7 12.5,11.7 Z M12.5,1.85 C13.83334,1.85 15.0583278,2.17499675 16.175,2.825 C17.2750055,3.47500325 18.1499967,4.3499945 18.8,5.45 C19.4500033,6.56667225 19.775,7.79166 19.775,9.125 C19.775,10.1416717 19.5250025,11.3083267 19.025,12.625 C18.5916645,13.7416723 17.9916705,14.9499935 17.225,16.25 C16.5916635,17.2833385 15.8666708,18.3583278 15.05,19.475 C14.4833305,20.2583373 13.8833365,21.0249963 13.25,21.775 L12.5,22.65 L11.75,21.775 C11.1166635,21.0249963 10.5166695,20.2583373 9.95,19.475 C9.13332925,18.3583278 8.4083365,17.2833385 7.775,16.25 C7.0083295,14.9499935 6.4083355,13.7416723 5.975,12.625 C5.4749975,11.3083267 5.225,10.1416717 5.225,9.125 C5.225,7.79166 5.54999675,6.56667225 6.2,5.45 C6.85000325,4.3499945 7.7249945,3.47500325 8.825,2.825 C9.94167225,2.17499675 11.16666,1.85 12.5,1.85 Z" id=""></path>
                        </g>
                    </g>
                </g>
            </g>
        </g>
    </g>
</svg>